<svg fill="#d22856" width="12.54" height="12" xmlns="http://www.w3.org/2000/svg" viewBox="0 0 12.54 11.99"><title>icon-heart</title><path d="M6.24 12a.73.73 0 0 1-.56-.25C1.89 7.42 1 6.44.83 6.17A3.85 3.85 0 0 1 0 3.8 3.82 3.82 0 0 1 6.28.9 3.85 3.85 0 0 1 8.75 0a3.8 3.8 0 0 1 3.79 3.8 3.48 3.48 0 0 1-.89 2.38l-4.86 5.56a.73.73 0 0 1-.55.25zM2 5.28c.21.26 2.47 2.84 4.24 4.86l4.32-4.94a2 2 0 0 0 .52-1.4 2.33 2.33 0 0 0-2.33-2.33 2.43 2.43 0 0 0-1.9.94.79.79 0 0 1-.59.28.71.71 0 0 1-.57-.3 2.36 2.36 0 0 0-1.89-.92A2.34 2.34 0 0 0 2 5.27z"/></svg>