<svg fill="#d22856" width="19.7" height="19.7" xmlns="http://www.w3.org/2000/svg" viewBox="0 0 19.7 19.7"><title>icon-phone</title><path d="M9.8 0c-3.5 0-7 .6-8.3 1.9a7.1 7.1 0 0 0-1.5 4v.2a.9.9 0 0 0 .8.8L4 6.6h.1a.7.7 0 0 0 .8-.8V4.2a.9.9 0 0 1 .9-.9h8.1a.9.9 0 0 1 .9.9v1.6a.7.7 0 0 0 .8.8h.1l3.2.3a.9.9 0 0 0 .8-.8v-.2a6.6 6.6 0 0 0-1.6-4C16.9.6 13.4 0 9.8 0zm0 10.7a1.6 1.6 0 0 0-1.6 1.6A1.7 1.7 0 0 0 9.8 14a1.7 1.7 0 0 0 1.7-1.7 1.6 1.6 0 0 0-1.7-1.6zM8.6 7V6a1 1 0 1 0-2 0v1L1 12.9a2 2 0 0 0-.6 1.5V16a1.6 1.6 0 0 0 1.7 1.6h.4v1.1a1 1 0 0 0 2 0v-1.1h10.7v1.1a1 1 0 0 0 2 0v-1.1h.4a1.7 1.7 0 0 0 1.7-1.6v-1.6a2.5 2.5 0 0 0-.6-1.5L13.1 7V6a1 1 0 1 0-2 0v1zm1.2 2a3.3 3.3 0 1 1-3.2 3.3A3.3 3.3 0 0 1 9.8 9z"/></svg>