<svg width="17" height="10.7" xmlns="http://www.w3.org/2000/svg" viewBox="0 0 17 10.7"><path d="M16 2.2H5.3a1.1 1.1 0 0 1 0-2.2H16a1.1 1.1 0 0 1 0 2.2zm-14.9 0a1.1 1.1 0 1 1 0-2.2 1.1 1.1 0 0 1 0 2.2zM16 6.4H5.3a.9.9 0 0 1-1-1 1 1 0 0 1 1-1.1H16a1 1 0 0 1 1 1.1.9.9 0 0 1-1 1zm-14.9 0a1 1 0 0 1-1.1-1 1.1 1.1 0 0 1 1.1-1.1 1 1 0 0 1 1 1.1.9.9 0 0 1-1 1zM16 10.7H5.3a1 1 0 0 1-1-1.1.9.9 0 0 1 1-1H16a.9.9 0 0 1 1 1 1 1 0 0 1-1 1.1zm-14.9 0A1.1 1.1 0 0 1 0 9.6a1 1 0 0 1 1.1-1 .9.9 0 0 1 1 1 1 1 0 0 1-1 1.1z" fill="#cb944b"/></svg>