<svg xmlns="http://www.w3.org/2000/svg" width="26" height="26" viewBox="0 0 32 32"><path fill="#3476B7" d="M30.742 9.772a15.94 15.94 0 0 0-3.428-5.086A15.942 15.942 0 0 0 16 0 15.946 15.946 0 0 0 4.687 4.686 15.943 15.943 0 0 0 0 16a15.955 15.955 0 0 0 4.687 11.314A15.936 15.936 0 0 0 16 32a15.94 15.94 0 0 0 11.314-4.686A15.944 15.944 0 0 0 32 16c0-2.16-.423-4.255-1.258-6.228zM16 5c1.103 0 2 .897 2 2s-.897 2-2 2-2-.897-2-2 .897-2 2-2zm5 10.932a.388.388 0 0 1-.383.393h-2.402v10.282a.389.389 0 0 1-.383.393h-3.449a.389.389 0 0 1-.383-.393V12.393c0-.217.172-.393.383-.393h6.234c.212 0 .383.176.383.393v3.539z"/></svg>