<svg xmlns="http://www.w3.org/2000/svg" width="26" height="18.9" viewBox="0 0 32 23"><path fill="#3476B7" d="M30.857 4.6H27.43c-.632 0-1.143.515-1.143 1.15V6.9h-2.941l-2.583-2.712a1.139 1.139 0 0 0-.825-.355H16.38V2.3h4.19c.632 0 1.143-.515 1.143-1.15 0-.635-.511-1.15-1.143-1.15H9.905c-.631 0-1.143.515-1.143 1.15 0 .635.512 1.15 1.143 1.15h4.19v1.533H11.81c-.302 0-.591.12-.805.334l-3.507 3.5H4.952c-.63 0-1.142.514-1.142 1.15v3.833H2.286v-6.9c0-.635-.512-1.15-1.143-1.15S0 5.115 0 5.75v16.1C0 22.485.512 23 1.143 23s1.143-.515 1.143-1.15v-6.9H3.81v3.833c0 .636.511 1.15 1.142 1.15H9.04l2.615 2.717c.215.224.512.35.821.35h9.238c.323 0 .63-.136.846-.376l3.47-3.84h.256v1.15c0 .635.511 1.15 1.143 1.15h3.428c.631 0 1.143-.515 1.143-1.15V5.75c0-.635-.512-1.15-1.143-1.15z"/></svg>