<svg xmlns="http://www.w3.org/2000/svg" width="27" height="20.5" viewBox="0 0 33 25"><path fill="#3476B7" d="M32.428 9.894c.369-.375.572-.87.572-1.393 0-1.09-.883-1.975-1.968-1.975h-2.454l-1.29-2.848A6.25 6.25 0 0 0 21.606 0H11.425a6.249 6.249 0 0 0-5.683 3.677L4.46 6.51H1.987a1.97 1.97 0 0 0-1.404.581A1.966 1.966 0 0 0 0 8.501c0 1.1.891 1.994 1.988 1.994h.671a8.396 8.396 0 0 0-.683 3.28v6.34c0 .354.243.648.57.733v2.455c0 .936.758 1.697 1.69 1.697H5.91c.934 0 1.695-.761 1.695-1.697v-2.808h8.891c.017-.003 2.993-.003 8.929 0v2.808a1.7 1.7 0 0 0 1.7 1.697h1.668c.933 0 1.692-.761 1.692-1.697v-2.455a.759.759 0 0 0 .569-.734v-6.34c0-1.122-.24-2.26-.691-3.298h.668c.522 0 1.017-.205 1.397-.582zm-12.451-.179l-1.96-.02a203.715 203.715 0 0 0-6.303.047l-1.947.049c-1.75.057-3.495.14-5.236.24l2.593-5.725a4.729 4.729 0 0 1 4.3-2.784h10.182a4.73 4.73 0 0 1 4.3 2.785l2.599 5.738c-2.833-.17-5.679-.28-8.528-.33z"/></svg>