<svg width="32" height="32" viewBox="0 0 31 31" fill="none" xmlns="http://www.w3.org/2000/svg">
<path d="M17.36 0.620117L6.2 8.06012H2.48C1.10982 8.06012 0 9.16994 0 10.5401V20.4601C0 21.8303 1.10982 22.9401 2.48 22.9401H6.2L17.36 30.3801C18.7302 30.3801 19.84 29.2691 19.84 27.9001V3.10012C19.84 1.73115 18.7302 0.620117 17.36 0.620117ZM6.2 19.2201C6.2 19.9046 5.64448 20.4601 4.96 20.4601H3.72C3.03552 20.4601 2.48 19.9045 2.48 19.2201V11.7801C2.48 11.0956 3.03552 10.5401 3.72 10.5401H4.96C5.64448 10.5401 6.2 11.0956 6.2 11.7801V19.2201ZM17.36 27.9001L8.68 22.4751V8.52512L17.36 3.10012V27.9001ZM23.56 6.94533V9.42533C26.3897 9.99944 28.52 12.5005 28.52 15.5001C28.52 18.4997 26.3897 21.0008 23.56 21.5749V24.0549C27.7612 23.4485 31 19.8686 31 15.5001C31 11.1303 27.7612 7.55171 23.56 6.94533Z" fill="#E84362"/>
</svg>
