<svg width="30" height="30" viewBox="0 0 28 28" fill="none" xmlns="http://www.w3.org/2000/svg">
<g clip-path="url(#clip0)">
<path d="M23.2245 16.4894H16.4608V18.704H11.5392V16.4894H4.7755C2.88079 16.4894 1.17554 15.6636 0 14.3533V26.6531H28V14.3533C26.8245 15.6636 25.1192 16.4894 23.2245 16.4894Z" fill="white"/>
<path d="M4.7755 14.8489H11.5392V12.6887H16.4608V14.8489H23.2245C25.8557 14.8489 27.9966 12.71 28 10.0796V5.83623H20.2397V5.26131C20.2397 3.10264 18.4834 1.34644 16.3248 1.34644H11.6753C9.51661 1.34644 7.7604 3.10264 7.7604 5.26131V5.83617H0V10.0817C0.00459325 12.7111 2.14505 14.8489 4.7755 14.8489ZM9.40079 5.26131C9.40079 4.00719 10.4211 2.98688 11.6752 2.98688H16.3247C17.5788 2.98688 18.5992 4.00719 18.5992 5.26131V5.83617H9.40079V5.26131Z" fill="white"/>
<path d="M14.8204 14.3291H13.1797V17.0634H14.8204V14.3291Z" fill="white"/>
</g>
<defs>
<clipPath id="clip0">
<rect width="28" height="28" fill="white" transform="matrix(-1 0 0 1 28 0)"/>
</clipPath>
</defs>
</svg>
