<svg width="62" height="62" viewBox="0 0 62 62" fill="none" xmlns="http://www.w3.org/2000/svg">
<g clip-path="url(#clip0)">
<path d="M21.2594 40.1569L5.30422 13.6763C1.95662 18.6258 0 24.5867 0 30.9996C0 34.186 0.484473 37.2626 1.38225 40.1569H21.2594Z" fill="#E84362"/>
<path d="M27.9633 17.855H59.0644C55.07 9.36069 47.3322 2.96528 37.9861 0.805176L27.9633 17.855Z" fill="#E84362"/>
<path d="M17.9792 27.4521L34.0255 0.151082C33.0291 0.0524418 32.0214 0 30.9988 0C21.7563 0 13.4516 4.07049 7.76782 10.5083L17.9792 27.4521Z" fill="#E84362"/>
<path d="M24.4434 61.0226L34.2577 43.9028H2.8244C6.94741 52.8704 15.2222 59.538 25.1751 61.4421L24.4434 61.0226Z" fill="#E84362"/>
<path d="M40.6907 21.6011L56.3599 48.7909C59.9097 43.7503 62.0012 37.6158 62.0012 30.9982C62.0012 27.723 61.4868 24.5665 60.5403 21.6011H40.6907Z" fill="#E84362"/>
<path d="M43.8848 34.6489L28.2755 61.87C29.1733 61.9487 30.081 61.9986 30.9988 61.9986C40.0302 61.9986 48.1714 58.1142 53.8427 51.9298L43.8848 34.6489Z" fill="#E84362"/>
</g>
<defs>
<clipPath id="clip0">
<rect width="62" height="62" fill="white"/>
</clipPath>
</defs>
</svg>
