<svg width="32" height="32" viewBox="0 0 36 36" fill="none" xmlns="http://www.w3.org/2000/svg">
<g clip-path="url(#clip0)">
<path d="M30.4926 9.82068C29.5854 8.6976 28.532 7.70691 27.3713 6.87112L28.6685 4.83124L26.8912 3.70129L25.5861 5.75381C24.5687 5.20587 23.4923 4.76752 22.3778 4.45001L22.3778 8.17689e-08L13.5797 4.66402e-08L13.5797 4.45029C12.4648 4.76752 11.3887 5.20587 10.3714 5.75409L9.06592 3.70129L7.28888 4.83151L8.58582 6.8714C7.42511 7.70718 6.37207 8.6976 5.46487 9.82068C3.16516 12.667 1.89844 16.2534 1.89844 19.9199C1.89844 24.215 3.57111 28.253 6.60828 31.2902C9.64545 34.3273 13.6835 36 17.9786 36C22.274 36 26.312 34.3273 29.3492 31.2902C32.3863 28.253 34.059 24.215 34.059 19.9199C34.059 16.2534 32.7925 12.667 30.4926 9.82068ZM15.6857 2.10608L20.2717 2.10608L20.2717 4.21243L15.6857 4.21243L15.6857 2.10608ZM17.9786 33.8939C10.2733 33.8939 4.00452 27.6251 4.00452 19.9199C4.00452 16.7336 5.1048 13.617 7.10294 11.1443C9.04971 8.73495 11.7655 7.02466 14.7601 6.31851L21.1973 6.31851C24.1919 7.02466 26.9077 8.73495 28.8545 11.1443C30.8524 13.617 31.9529 16.7336 31.9529 19.9199C31.9529 27.6251 25.6841 33.8939 17.9786 33.8939Z" fill="#E84362"/>
<path d="M17.9786 8.14355C11.3822 8.14355 6.01562 13.5101 6.01562 20.1066C6.01562 26.703 11.3822 32.0696 17.9786 32.0696C24.5754 32.0696 29.9419 26.703 29.9419 20.1066C29.9419 13.5101 24.5754 8.14355 17.9786 8.14355ZM17.9786 29.9635C12.5437 29.9635 8.1217 25.5418 8.1217 20.1066C8.1217 15.027 11.9839 10.8333 16.9256 10.3059L16.9256 12.4845L19.0317 12.4845L19.0317 10.3059C23.9736 10.8333 27.8358 15.027 27.8358 20.1066C27.8358 25.5418 23.4138 29.9635 17.9786 29.9635Z" fill="#E84362"/>
<path d="M17.4047 18.6357C17.2452 18.6983 17.0944 18.7856 16.9595 18.8996C16.6371 19.1718 16.4401 19.5533 16.4047 19.9735C16.3314 20.8415 16.9779 21.6072 17.8458 21.6805C17.8912 21.6844 17.9365 21.6863 17.9813 21.6863C18.3534 21.6863 18.7102 21.5561 18.9978 21.3133C19.1326 21.1996 19.2439 21.0659 19.3323 20.9189L23.6807 15.292L17.4047 18.6357Z" fill="#E84362"/>
</g>
<defs>
<clipPath id="clip0">
<rect width="36" height="36" fill="white"/>
</clipPath>
</defs>
</svg>
