<svg width="66" height="66" viewBox="0 0 66 66" fill="none" xmlns="http://www.w3.org/2000/svg">
<g clip-path="url(#clip0)">
<path d="M27.7036 17.6414H50.1467V24.867L48.2567 22.9879L45.5299 25.7308L52.0847 32.2473L58.6054 25.7268L55.8705 22.9919L54.0145 24.8478V13.7736H27.7036C26.7594 7.01063 20.9382 1.78809 13.9192 1.78809C6.24415 1.78809 0 8.03237 0 15.7075C0 23.3826 6.24415 29.6267 13.9192 29.6267C20.9382 29.6267 26.7594 24.4043 27.7036 17.6414ZM9.86942 18.4795L9.77195 18.0066L12.1359 16.5758L12.3809 17.4377C12.8204 18.9839 13.3498 19.2945 14.0615 19.2945C14.6178 19.2945 14.8649 19.0938 15.0172 18.9166C15.1936 18.6983 15.2793 18.4183 15.2793 18.061C15.2793 17.6015 15.0136 17.2258 13.6116 16.5585C12.6845 16.1372 12.2167 15.8504 11.6202 15.3369C10.9123 14.7076 10.5722 13.9135 10.5722 12.9018C10.5722 11.4213 11.4454 10.16 12.7543 9.66199V8.16581H15.3684V9.66986C16.2252 9.98122 16.9013 10.6159 17.3829 11.5635L17.6617 12.1121L15.4273 13.5598L15.0707 12.9247C14.6434 12.1637 14.3312 12.1049 13.9367 12.1049C13.5503 12.1049 13.311 12.462 13.311 12.7928C13.311 13.0876 13.3633 13.2619 13.6707 13.5036L13.6825 13.5117C13.8945 13.6577 14.0781 13.7838 14.2114 13.8571L15.0462 14.2901C15.6587 14.5963 16.0097 14.7784 16.5782 15.209C17.5196 15.9104 17.9648 16.7723 18.0174 18.0006L18.0181 18.0298C18.0181 19.0811 17.674 19.987 16.9952 20.7223C16.5398 21.2215 15.9939 21.5721 15.3684 21.7676V23.249H12.7543V21.7767C11.3023 21.3136 10.1978 20.0727 9.86942 18.4795Z" fill="#E84362"/>
<path d="M52.0807 36.3736C45.0619 36.3736 39.2406 41.596 38.2963 48.359H15.8531V41.1333L17.7432 43.0123L20.4701 40.2694L13.9154 33.7529L7.39453 40.2732L10.1294 43.0084L11.9855 41.1524V52.2266H38.2963C39.2406 58.9896 45.0617 64.2121 52.0807 64.2121C59.7558 64.2121 66.0001 57.9678 66.0001 50.2927C66.0001 42.6176 59.7558 36.3736 52.0807 36.3736ZM54.6217 47.5422L53.3843 50.017H49.5475V50.5686H54.6216L53.3842 53.0434H49.8053C50.2486 54.583 51.1766 55.305 52.6926 55.305C53.5978 55.305 54.2818 54.9062 54.784 54.086L55.0089 53.7188L57.1741 54.9082L56.9615 55.3024C56.0745 56.9464 54.6382 57.7799 52.6927 57.7799C49.8512 57.7799 47.8706 56.0596 47.212 53.0435H44.9465L46.1839 50.5688H46.9942V50.0171H44.9465L46.1839 47.5424H47.2121C47.8706 44.5261 49.8513 42.806 52.6929 42.806C54.6385 42.806 56.0746 43.6395 56.9616 45.2834L57.1742 45.6777L55.009 46.867L54.7842 46.4999C54.2819 45.6796 53.5979 45.2809 52.6927 45.2809C51.1767 45.2809 50.2487 46.0028 49.8054 47.5425H54.6217V47.5422Z" fill="#E84362"/>
</g>
<defs>
<clipPath id="clip0">
<rect width="66" height="66" fill="white"/>
</clipPath>
</defs>
</svg>
