<svg width="62" height="62" viewBox="0 0 62 62" fill="none" xmlns="http://www.w3.org/2000/svg">
<g clip-path="url(#clip0)">
<path d="M14.6871 16.1691L14.6297 16.1118C14.208 15.69 13.378 15.2982 12.2297 14.9581C11.1031 14.6244 9.7484 14.3621 8.35417 14.1538C6.12402 13.8205 3.83637 13.6312 2.27405 13.5019C1.89189 13.4702 1.55313 13.4422 1.26922 13.4165C1.14567 13.4168 1.08197 13.4197 1.02533 13.4339C0.982176 13.4447 0.933857 13.4647 0.870222 13.5283C0.870195 13.5283 0.870167 13.5283 0.870139 13.5284M14.6871 16.1691L0.870139 13.5284M14.6871 16.1691L14.7596 16.2054C14.8815 16.2664 14.9317 16.3448 14.9611 16.4331C14.9952 16.5355 14.9997 16.6473 15.0001 16.7727C14.7426 20.0744 13.4682 25.1187 12.2417 29.4759C11.7101 31.3645 11.1907 33.1133 10.7721 34.5225C10.7085 34.7366 10.6473 34.9428 10.5887 35.1405C10.3669 35.8886 10.182 36.5174 10.0524 36.9839C9.9878 37.2168 9.93559 37.4141 9.89919 37.568C9.88044 37.6473 9.86021 37.7368 9.84721 37.8213M14.6871 16.1691L9.84721 37.8213M0.870139 13.5284C0.790434 13.6081 0.689992 13.7524 0.608668 13.9151C0.569508 13.9935 0.539817 14.0661 0.520864 14.1257C0.502545 14.1833 0.50031 14.2098 0.500038 14.2097C0.5 14.2097 0.5 14.2092 0.5 14.2082V37.4582C0.5 37.7321 0.589114 37.9215 0.708782 38.0411C0.82845 38.1608 1.01784 38.2499 1.29171 38.2499H9.04171C9.37022 38.2499 9.67516 38.1003 9.84721 37.8213M0.870139 13.5284L9.84721 37.8213" fill="#E84362" stroke="black"/>
<path d="M37.3792 20.5865C38.8836 21.1847 40.53 21.8393 42.2825 22.3766C42.9173 23.5908 43.9523 26.2122 45.0626 29.2038C45.9489 31.592 46.8731 34.1878 47.6631 36.4318C45.664 34.3193 42.739 31.8562 39.8459 29.5826C38.8622 28.7085 37.8785 27.8803 36.9779 27.122C36.812 26.9823 36.6489 26.845 36.4891 26.7102C35.4526 25.8357 34.5651 25.0743 33.9368 24.446L33.7903 24.2995H33.5832C33.5841 24.2995 33.5838 24.2995 33.5822 24.2993C33.5753 24.2983 33.5448 24.2943 33.4806 24.2768C33.4078 24.2569 33.3247 24.2294 33.2246 24.196L33.2181 24.1939C33.1258 24.1631 33.0179 24.1271 32.9155 24.0992C32.8175 24.0725 32.6839 24.0412 32.5499 24.0412H32.5484H32.5469H32.5454H32.5439H32.5424H32.5409H32.5395H32.538H32.5365H32.5351H32.5336H32.5322H32.5307H32.5293H32.5278H32.5264H32.525H32.5236H32.5222H32.5208H32.5194H32.518H32.5166H32.5152H32.5138H32.5125H32.5111H32.5097H32.5084H32.507H32.5057H32.5044H32.503H32.5017H32.5004H32.4991H32.4977H32.4964H32.4951H32.4938H32.4925H32.4912H32.49H32.4887H32.4874H32.4861H32.4849H32.4836H32.4824H32.4811H32.4799H32.4786H32.4774H32.4762H32.4749H32.4737H32.4725H32.4713H32.4701H32.4689H32.4677H32.4665H32.4653H32.4641H32.4629H32.4618H32.4606H32.4594H32.4582H32.4571H32.4559H32.4548H32.4536H32.4525H32.4514H32.4502H32.4491H32.448H32.4468H32.4457H32.4446H32.4435H32.4424H32.4413H32.4402H32.4391H32.438H32.4369H32.4359H32.4348H32.4337H32.4326H32.4316H32.4305H32.4295H32.4284H32.4273H32.4263H32.4253H32.4242H32.4232H32.4221H32.4211H32.4201H32.4191H32.4181H32.417H32.416H32.415H32.414H32.413H32.412H32.411H32.41H32.409H32.4081H32.4071H32.4061H32.4051H32.4041H32.4032H32.4022H32.4012H32.4003H32.3993H32.3984H32.3974H32.3965H32.3955H32.3946H32.3937H32.3927H32.3918H32.3909H32.3899H32.389H32.3881H32.3872H32.3862H32.3853H32.3844H32.3835H32.3826H32.3817H32.3808H32.3799H32.379H32.3781H32.3772H32.3763H32.3754H32.3746H32.3737H32.3728H32.3719H32.3711H32.3702H32.3693H32.3684H32.3676H32.3667H32.3659H32.365H32.3641H32.3633H32.3624H32.3616H32.3607H32.3599H32.3591H32.3582H32.3574H32.3565H32.3557H32.3549H32.354H32.3532H32.3524H32.3516H32.3507H32.3499H32.3491H32.3483H32.3474H32.3466H32.3458H32.345H32.3442H32.3434H32.3426H32.3418H32.341H32.3402H32.3394H32.3386H32.3378H32.337H32.3362H32.3354H32.3346H32.3338H32.333H32.3322H32.3314H32.3306H32.3298H32.3291H32.3283H32.3275H32.3267H32.3259H32.3251H32.3244H32.3236H32.3228H32.322H32.3213H32.3205H32.3197H32.3189H32.3182H32.3174H32.3166H32.3159H32.3151H32.3143H32.3136H32.3128H32.312H32.3113H32.3105H32.3097H32.309H32.3082H32.3074H32.3067H32.3059H32.3052H32.3044H32.3036H32.3029H32.3021H32.3014H32.3006H32.2998H32.2991H32.2983H32.2976H32.2968H32.2961H32.2953H32.2945H32.2938H32.293H32.2923H32.2915H32.2908H32.29H32.2892H32.2885H32.2877H32.287H32.2862H32.2855H32.2847H32.2839H32.2832H32.2824H32.2817H32.2809H32.2801H32.2794H32.2786H32.2779H32.2771H32.2763H32.2756H32.2748H32.2741H32.2733H32.2725H32.2718H32.271H32.2702H32.2695H32.2687H32.2679H32.2672H32.2664H32.2656H32.2649H32.2641H32.2633H32.2625H32.2618H32.261H32.2602H32.2594H32.2587H32.2579H32.2571H32.2563H32.2555H32.2548H32.254H32.2532H32.2524H32.2516H32.2508H32.25H32.2492H32.2484H32.2477H32.2469H32.2461H32.2453H32.2445H32.2437H32.2429H32.2421H32.2413H32.2405H32.2396H32.2388H32.238H32.2372H32.2364H32.2356H32.2348H32.2339H32.2331H32.2323H32.2315H32.2306H32.2298H32.229H32.2282H32.2273H32.2265H32.2257H32.2248H32.224H32.2231H32.2223H32.2214H32.2206H32.2197H32.2189H32.218H32.2172H32.2163H32.2154H32.2146H32.2137H32.2128H32.212H32.2111H32.2102H32.2093H32.2085H32.2076H32.2067H32.2058H32.2049H32.204H32.2031H32.2022H32.2013H32.2004H32.1995H32.1986H32.1977H32.1968H32.1959H32.195H32.194H32.1931H32.1922H32.1913H32.1903H32.1894H32.1885H32.1875H32.1866H32.1856H32.1847H32.1837H32.1828H32.1818H32.1808H32.1799H32.1789H32.1779H32.177H32.176H32.175H32.174H32.173H32.172H32.171H32.17H32.169H32.168H32.167H32.166H32.165H32.164H32.163H32.1619H32.1609H32.1599H32.1588H32.1578H32.1568H32.1557H32.1547H32.1536H32.1525H32.1515H32.1504H32.1493H32.1483H32.1472H32.1461H32.145H32.1439H32.1429H32.1418H32.1407H32.1396H32.1384H32.1373H32.1362H32.1351H32.134H32.1328H32.1317H32.1306H32.1294H32.1283H32.1271H32.126H32.1248H32.1237H32.1225H32.1213H32.1201H32.119H32.1178H32.1166H32.1154H32.1142H32.113H32.1118H32.1106H32.1094H32.1081H32.1069H32.1057H32.1044H32.1032H32.102H32.1007H32.0995H32.0982H32.0969H32.0957H32.0944H32.0931H32.0918H32.0905H32.0893H32.088H32.0867H32.0853H32.084H32.0827H32.0814H32.0801H32.0787H32.0774H32.076H32.0747H32.0733H32.072H32.0706H32.0693H32.0679H32.0665H32.0651H32.0637H32.0623H32.0609H32.0595H32.0581H32.0567H32.0553H32.0538H32.0524H32.0509H32.0495H32.048H32.0466H32.0451H32.0437H32.0422H32.0407H32.0392H32.0377H32.0362H32.0347H32.0332H31.9521L31.8751 24.0669C31.0805 24.3317 30.5429 24.5983 30.0325 24.8534C29.8377 24.9196 29.6745 24.9851 29.5321 25.0445C29.4898 25.0621 29.4508 25.0785 29.414 25.094C29.3145 25.136 29.2313 25.1711 29.1452 25.2033C28.9347 25.2823 28.7359 25.3329 28.4166 25.3329C27.6924 25.3329 27.3062 25.7194 27.043 25.9829C27.0386 25.9873 27.0341 25.9917 27.0298 25.9961L26.991 26.0349L26.9615 26.0812C26.1007 27.434 25.2876 27.976 24.6055 28.1596C23.9246 28.3429 23.2772 28.1964 22.6797 27.9597C22.5826 27.9111 22.5122 27.8757 22.4583 27.8471V27.8381L22.4434 27.7784C22.4098 27.6441 22.4164 27.3885 22.5216 27.0015C22.6229 26.6286 22.8015 26.1857 23.0485 25.7071C23.5428 24.7495 24.2878 23.694 25.1536 22.8282C27.2247 20.757 28.698 19.5513 30.1837 19.0759C31.6294 18.6132 33.1714 18.8202 35.447 19.8316L35.4605 19.8376L35.4745 19.8428C36.0797 20.0698 36.7157 20.3226 37.3792 20.5865Z" fill="#E84362" stroke="black"/>
<path d="M44.6037 19.6343L44.572 19.5816L44.5285 19.538C44.5102 19.5197 44.4686 19.4518 44.4421 19.2928C44.4294 19.2165 44.423 19.1382 44.4198 19.0622L44.6577 18.8243L44.9495 18.5325C44.9523 18.5316 44.955 18.5307 44.9578 18.5298C45.0234 18.5086 45.1089 18.4786 45.2075 18.4437C45.2284 18.4363 45.2503 18.4286 45.2729 18.4205C45.4673 18.3517 45.7238 18.2609 46.0446 18.154C46.76 17.9155 47.7951 17.597 49.1346 17.278C51.8135 16.6402 55.7141 16 60.7083 16C60.9822 16 61.1716 16.0891 61.2913 16.2088C61.411 16.3284 61.5 16.5178 61.5 16.7915V40.0415C61.5 40.3153 61.4109 40.5047 61.2913 40.6244C61.1716 40.7441 60.9822 40.8332 60.7083 40.8332H52.9583C52.8642 40.8332 52.7176 40.782 52.5409 40.6306C52.3845 40.4966 52.2422 40.3147 52.141 40.1283C51.7239 38.2402 50.242 33.8055 48.681 29.5365C47.8884 27.3691 47.0708 25.2318 46.3534 23.4728C45.6415 21.7272 45.0142 20.3186 44.6037 19.6343Z" fill="#E84362" stroke="black"/>
<path d="M46.3014 41.0196L46.3061 41.03L46.3111 41.0401C46.6623 41.7424 46.3781 42.2608 46.1953 42.4765C45.9642 42.5911 45.7789 42.6772 45.6038 42.721C45.4566 42.7578 45.3422 42.7577 45.2366 42.721L37.8119 35.2963C37.1 34.5842 36.0084 34.5845 35.2965 35.2962C34.5845 36.0081 34.5846 37.0997 35.2965 37.8116L42.2333 44.7485C42.1775 44.807 42.1151 44.8639 42.0466 44.9209C41.9786 44.9776 41.9124 45.0284 41.8412 45.0831C41.8207 45.0988 41.7999 45.1148 41.7784 45.1314C41.7206 45.1761 41.6562 45.2265 41.5935 45.2812C41.2837 45.3716 40.9294 45.4185 40.6229 45.4185C40.4537 45.4185 40.3144 45.4041 40.2147 45.382C40.1584 45.3695 40.1295 45.3578 40.1188 45.3532L33.6787 38.913C33.6786 38.913 33.6786 38.913 33.6786 38.913C32.9667 38.2009 31.8751 38.2012 31.1633 38.9129C30.4512 39.6248 30.4513 40.7164 31.1632 41.4284L36.8819 47.147C36.7943 47.3764 36.709 47.5484 36.6063 47.6853C36.4876 47.8436 36.3326 47.9717 36.0755 48.0685C35.9479 48.0738 35.8271 48.0889 35.7283 48.1013L35.7172 48.1027C35.5826 48.1195 35.4845 48.1311 35.3917 48.1311C35.2406 48.1311 35.1183 48.1026 34.9703 47.9547L29.8036 42.788C29.0917 42.0759 28.0001 42.0762 27.2883 42.7879C26.5762 43.4998 26.5763 44.5914 27.2882 45.3034L30.5125 48.5276C30.2481 48.4776 29.9358 48.3952 29.6083 48.286C29.0553 48.1017 28.5255 47.8634 28.1885 47.6412C28.0567 47.5425 27.8557 47.3937 27.5954 47.201C25.7401 45.8281 20.8736 42.2269 16.5972 38.6258L16.5758 38.6077L16.5525 38.5922C16.2202 38.3706 15.8051 37.9608 15.316 37.4391C15.1704 37.2838 15.0188 37.1193 14.8634 36.9506C14.5867 36.6502 14.2978 36.3365 14.0089 36.0385C15.2675 32.4313 16.956 26.1533 17.9758 21.1665H21.6005C20.8874 22.0145 20.1684 23.056 19.608 24.1525C18.8489 25.6376 18.3346 27.3137 18.6265 28.7729L18.6288 28.7845L18.6317 28.7961C18.9216 29.9559 19.8009 31.1643 21.3058 31.4823C22.8172 32.0239 24.2818 32.0251 25.6471 31.535C26.9524 31.0664 28.1354 30.1606 29.1748 28.9115C29.8817 28.881 30.2844 28.7173 30.6952 28.5503C30.8435 28.49 30.9929 28.4292 31.1581 28.3741L31.5001 28.2602V28.0963C31.5068 28.0937 31.514 28.0909 31.5215 28.0879C31.5799 28.0652 31.66 28.0339 31.7355 27.9993C32.2536 28.4252 32.8132 28.8708 33.402 29.3397C34.5625 30.2638 35.8363 31.2782 37.1291 32.4095L37.1374 32.4168L37.146 32.4236C37.479 32.69 37.815 32.9577 38.1519 33.2261C39.7833 34.5258 41.434 35.8407 42.8422 37.0896C43.6907 37.8419 44.4419 38.5624 45.0416 39.2326C45.6456 39.9076 46.0741 40.508 46.3014 41.0196Z" fill="#E84362" stroke="black"/>
</g>
<defs>
<clipPath id="clip0">
<rect width="62" height="62" fill="white"/>
</clipPath>
</defs>
</svg>
