<svg width="50" height="50" viewBox="0 0 50 50" fill="none" xmlns="http://www.w3.org/2000/svg">
<path d="M33.2149 25L44.0618 13.0656C46.9649 9.875 46.7305 4.93125 43.5368 2.02813C40.343 -0.86875 35.4024 -0.634375 32.5024 2.55312L19.5305 16.825V7.8125C19.5305 3.49687 16.0336 0 11.718 0C7.40239 0 3.90552 3.49687 3.90552 7.8125V42.1875C3.90552 46.5031 7.40239 50 11.718 50C16.0336 50 19.5305 46.5031 19.5305 42.1875V33.1781L32.4993 47.4438C34.043 49.1406 36.1586 50 38.2836 50C40.1586 50 42.0399 49.3281 43.5368 47.9688C46.7274 45.0656 46.9649 40.125 44.0618 36.9344L33.2149 25Z" fill="#E84362"/>
</svg>
