<svg width="62" height="62" viewBox="0 0 62 62" fill="none" xmlns="http://www.w3.org/2000/svg">
<g clip-path="url(#clip0)">
<path d="M52.3442 11.2993H35.389C34.7042 11.2993 34.1082 11.8953 34.1082 12.5802V20.5695C34.1082 21.5079 35.0973 22.142 35.9343 21.6982L52.8895 13.7215C54.1196 13.1128 53.6758 11.2993 52.3442 11.2993Z" fill="#E84362"/>
<path d="M27.9068 20.5568V12.5675C27.9068 11.8827 27.3108 11.2866 26.626 11.2866H9.67079C8.2885 11.2866 7.89537 13.1635 9.12548 13.6961L26.0807 21.7235C26.9177 22.142 27.9068 21.4953 27.9068 20.5568Z" fill="#E84362"/>
<path d="M34.2602 23.7145C33.5754 23.613 32.9794 24.1076 32.8779 24.7924C32.7765 25.4772 33.2711 26.0732 33.9559 26.1747C38.052 26.72 39.9162 28.191 39.9162 28.9773C39.9162 30.0552 36.9107 31.6911 32.2819 31.9828V8.77562C34.1588 8.23031 35.5284 6.50563 35.5284 4.48926C35.4776 2.02905 33.4613 0 31.0011 0C28.5409 0 26.5118 2.01636 26.5118 4.48926C26.5118 6.55635 27.8941 8.28104 29.7583 8.77562V31.9828C25.1295 31.7419 22.124 30.106 22.124 28.9773C22.124 28.1403 24.0009 26.7073 28.0843 26.1747C28.7691 26.0732 29.213 25.4899 29.1623 24.7924C29.0608 24.1076 28.4775 23.6637 27.78 23.7145C22.8088 24.3993 19.6511 26.4283 19.6511 28.99C19.6511 31.0571 21.6675 32.5915 24.4321 33.5173C22.6566 34.5064 21.5787 35.8887 21.5787 37.512C21.5787 39.5791 23.3541 41.3037 26.1567 42.2422C25.0281 43.2313 24.3306 44.5629 24.3306 45.9832C24.3306 47.7079 25.3198 49.2297 26.7908 50.2189C25.269 51.208 24.3306 52.7805 24.3306 54.4545C24.3306 56.3314 25.4593 58.056 27.3361 59.0325C27.9321 59.3749 28.6677 59.134 29.0101 58.5379C29.3525 57.9419 29.1115 57.2064 28.5155 56.864C27.4376 56.2679 26.7908 55.3802 26.7908 54.4545C26.7908 53.1229 28.0716 51.9436 29.7963 51.5504V60.7699C29.7963 61.4547 30.3416 62 31.0264 62C31.7112 62 32.2565 61.4547 32.2565 60.7699V51.5504C33.9812 51.9436 35.2621 53.0722 35.2621 54.4545C35.2621 55.3929 34.6153 56.2806 33.5374 56.864C32.9413 57.2064 32.7004 57.9419 33.0428 58.5379C33.2837 58.9311 33.8544 59.451 34.7168 59.0325C36.5936 57.9926 37.7223 56.3187 37.7223 54.4545C37.7223 52.7298 36.7331 51.208 35.2621 50.2189C36.7838 49.2297 37.7223 47.6572 37.7223 45.9832C37.7223 44.4995 37.0375 43.2187 35.8961 42.2422C38.6607 41.3037 40.4742 39.5791 40.4742 37.512C40.4742 35.8887 39.3962 34.5064 37.6208 33.5173C40.3854 32.6296 42.4018 31.1078 42.4018 28.99C42.3891 26.4283 39.2821 24.3993 34.2602 23.7145ZM29.771 48.938C28.0463 48.5449 26.7655 47.4162 26.7655 46.034C26.7655 44.7024 28.0463 43.523 29.771 43.1299V48.938ZM29.771 40.4668C26.423 40.2258 24.0516 38.7928 24.0516 37.512C24.0516 36.2311 26.423 34.8488 29.771 34.5572V40.4668ZM32.2439 48.9888V43.1806C33.9685 43.5737 35.2494 44.7024 35.2494 46.0847C35.2494 47.4162 33.9685 48.5956 32.2439 48.9888ZM37.9505 37.512C37.9505 38.7928 35.5791 40.2258 32.2312 40.4668V34.5572C35.5918 34.8488 37.9505 36.2311 37.9505 37.512Z" fill="#E84362"/>
</g>
<defs>
<clipPath id="clip0">
<rect width="62" height="62" fill="white"/>
</clipPath>
</defs>
</svg>
