<svg width="88" height="88" viewBox="0 0 88 88" fill="none" xmlns="http://www.w3.org/2000/svg">
<g clip-path="url(#clip0)">
<path d="M65.9198 21.9201C65.9198 21.9201 50.9445 20.0308 34.8716 36.1038C24.5631 46.4122 21.2338 55.9764 24.1921 61.1364L34.5684 50.7601C35.2615 50.067 36.3858 50.0661 37.0798 50.7601C37.7737 51.4541 37.7729 52.5783 37.0798 53.2715L26.7035 63.6477C31.8635 66.6061 41.4268 63.2759 51.7353 52.9675C67.9941 36.7087 65.9198 21.9201 65.9198 21.9201ZM53.4156 34.2251C51.9682 32.7777 50.6841 31.2341 49.6687 29.7448C54.8471 27.0191 59.2387 26.0865 62.0682 25.8018C61.7994 28.6087 60.8811 32.9676 58.1428 38.1419C56.5807 37.1056 54.9475 35.757 53.4156 34.2251Z" fill="#E84362"/>
<path d="M25.5025 40.9459C22.9852 38.4287 19.2031 38.1307 17.0542 40.2797L6.82612 50.5077L21.1895 52.6557C22.0543 49.3415 23.8524 45.7134 26.5212 41.9647L25.5025 40.9459Z" fill="#E84362"/>
<path d="M46.8925 62.3357L45.8746 61.3178C42.1251 63.9857 38.4978 65.7848 35.1836 66.6495L37.3315 81.0129L47.5596 70.7848C49.7085 68.6359 49.4105 64.8538 46.8925 62.3357Z" fill="#E84362"/>
</g>
<defs>
<clipPath id="clip0">
<rect width="62" height="62" fill="white" transform="translate(44) rotate(45)"/>
</clipPath>
</defs>
</svg>
