<svg width="30" height="30" viewBox="0 0 30 30" fill="none" xmlns="http://www.w3.org/2000/svg">
<path d="M12.5 1.66675C19.4036 1.66675 25 6.19576 25 11.7826C25 17.3694 19.4036 21.8984 12.5 21.8984C11.837 21.8984 11.1863 21.8562 10.5512 21.7758C7.86615 24.4501 4.76547 24.9296 1.66667 25.0001V24.3455C3.3399 23.529 4.6875 22.0418 4.6875 20.3421C4.6875 20.105 4.66896 19.8722 4.63464 19.6444C1.8076 17.7898 0 14.9571 0 11.7826C0 6.19576 5.59646 1.66675 12.5 1.66675ZM25.9375 24.3409C25.9375 25.7978 26.8831 27.0726 28.3333 27.7724V28.3334C25.6478 28.273 23.1827 27.862 20.8557 25.5698C20.3052 25.6387 19.7414 25.675 19.1667 25.675C16.6805 25.675 14.3904 25.0042 12.5621 23.8771C16.3296 23.8638 19.8866 22.6568 22.5839 20.4741C23.9435 19.3738 25.016 18.0828 25.7717 16.6369C26.5729 15.1039 26.9792 13.4707 26.9792 11.7826C26.9792 11.5105 26.9674 11.24 26.9464 10.9709C28.8362 12.5317 30 14.659 30 17.0042C30 19.7252 28.4334 22.1532 25.9834 23.7429C25.9536 23.938 25.9375 24.1376 25.9375 24.3409Z" fill="white"/>
</svg>
