<svg width="30" height="30" viewBox="0 0 30 30" fill="none" xmlns="http://www.w3.org/2000/svg">
<path d="M9.01125 4.33028C8.50216 3.89115 7.84096 3.62427 7.11618 3.62427C5.51167 3.62427 4.21118 4.92535 4.21118 6.52956C4.21118 6.96456 4.30964 7.37618 4.48111 7.74663C5.73708 6.32233 7.27625 5.15302 9.01125 4.33028Z" fill="white"/>
<path d="M15.0002 30C22.1726 30 27.9873 24.1853 27.9873 17.0131C27.9873 10.5899 23.3235 5.25993 17.1974 4.21502V3.68687V3.15793V1.78089H18.3239C18.6964 1.78089 18.9986 1.38244 18.9986 0.890445C18.9986 0.398745 18.6964 0 18.3239 0H11.6758C11.3029 0 11.0005 0.398745 11.0005 0.890445C11.0005 1.38244 11.3028 1.78089 11.6758 1.78089H12.8018V3.15743V3.68638V4.21453C11.708 4.40123 10.6619 4.72411 9.67989 5.166C7.90362 5.96476 6.34008 7.1496 5.0958 8.61576C3.17429 10.8799 2.01245 13.8097 2.01245 17.0126C2.01304 24.1853 7.82776 30 15.0002 30ZM7.34893 9.42317C8.0798 8.68641 8.91551 8.05439 9.83268 7.55178C11.368 6.70968 13.129 6.22889 15.0006 6.22889C20.9474 6.22889 25.7846 11.0667 25.7846 17.0131C25.7846 22.9597 20.9473 27.7974 15.0006 27.7974C9.05416 27.7974 4.21645 22.9597 4.21645 17.0131C4.21596 14.0556 5.41397 11.3735 7.34893 9.42317Z" fill="white"/>
<path d="M8.48018 23.5334C8.8974 23.9506 9.35451 24.3281 9.84484 24.6594C10.0901 24.8247 10.344 24.9794 10.605 25.1208C11.9116 25.8306 13.409 26.2341 15.0003 26.2341C15.1993 26.2341 15.3967 26.2275 15.5923 26.2147C16.5713 26.1532 17.509 25.9384 18.3817 25.594C18.7307 25.4567 19.0695 25.2979 19.3961 25.1204C19.6577 24.9785 19.911 24.8247 20.1563 24.659C20.6468 24.3271 21.1037 23.9507 21.5209 23.5329C23.1898 21.8641 24.2217 19.5592 24.2217 17.0126C24.2217 14.4662 23.1898 12.1606 21.5209 10.4919C21.1037 10.0745 20.6468 9.69748 20.1563 9.36595C19.911 9.20028 19.6572 9.04621 19.3961 8.90422C19.0695 8.72666 18.7307 8.56895 18.3817 8.4308C17.5095 8.08688 16.5713 7.87169 15.5923 7.80988C15.3967 7.79711 15.1993 7.79102 15.0003 7.79102C13.4085 7.79102 11.9116 8.19428 10.605 8.90383C10.3434 9.04572 10.0901 9.19999 9.84484 9.36556C9.35412 9.69699 8.89691 10.074 8.48018 10.4915C6.81131 12.1601 5.77917 14.4653 5.77917 17.0122C5.77967 19.5596 6.8118 21.8645 8.48018 23.5334ZM15.0008 9.67488V16.5835L8.0555 19.2528C6.82605 14.4636 10.188 9.67488 15.0008 9.67488Z" fill="white"/>
</svg>
