<svg width="32" height="32" viewBox="0 0 32 32" fill="none" xmlns="http://www.w3.org/2000/svg">
<path d="M27.3137 4.68629C24.2917 1.66426 20.2737 0 16 0C11.7263 0 7.70832 1.66426 4.68629 4.68629C1.66426 7.70832 0 11.7263 0 16C0 20.2737 1.66426 24.2917 4.68629 27.3137C7.70825 30.3357 11.7262 32 16 32C20.2738 32 24.2917 30.3357 27.3137 27.3137C30.3357 24.2917 32 20.2738 32 16C32 11.7262 30.3357 7.70832 27.3137 4.68629ZM16.9426 30.0825V27.2866H15.0574V30.0825C8.0241 29.6164 2.38361 23.9759 1.91751 16.9426H4.71343V15.0574H1.91751C2.38361 8.0241 8.0241 2.38361 15.0574 1.91751V4.71343H16.9426V1.91751C23.9759 2.38361 29.6164 8.0241 30.0825 15.0574H27.2866V16.9426H30.0825C29.6164 23.9759 23.9759 29.6164 16.9426 30.0825Z" fill="#E84362"/>
<path d="M16.8798 9.40137H14.9945V16.3903L23.0618 24.4575L24.3948 23.1245L16.8798 15.6094V9.40137Z" fill="#E84362"/>
</svg>
