<svg width="62" height="62" viewBox="0 0 62 62" fill="none" xmlns="http://www.w3.org/2000/svg">
<g clip-path="url(#clip0)">
<path d="M37.6407 52.86H33.5285V15.1736H50.8588L43.518 26.8219C43.1458 27.4125 43.3229 28.1935 43.9136 28.5656C44.1231 28.6977 44.356 28.7603 44.5865 28.7603C45.0063 28.7603 45.4169 28.5513 45.6572 28.1703L52.0236 18.0678L58.3898 28.1703C58.7622 28.7609 59.5431 28.938 60.1336 28.5656C60.7242 28.1935 60.9011 27.4125 60.5289 26.8219L53.1884 15.1736H53.2811C54.3633 15.1736 55.2407 14.2962 55.2407 13.214C55.2407 12.1319 54.3634 11.2545 53.2811 11.2545H38.8653C38.0513 10.0703 36.8498 9.17374 35.4432 8.7481C35.2422 6.47014 33.3302 4.68359 31 4.68359C28.6696 4.68359 26.7577 6.47014 26.5566 8.7481C25.15 9.17374 23.9485 10.0703 23.1346 11.2545H8.71879C7.63649 11.2545 6.75905 12.1319 6.75905 13.214C6.75905 14.2962 7.63635 15.1736 8.71879 15.1736H8.81152L1.47072 26.8219C1.09845 27.4125 1.27556 28.1935 1.86617 28.5656C2.07562 28.6977 2.30866 28.7603 2.53901 28.7603C2.95872 28.7603 3.36954 28.5513 3.60985 28.1703L9.97631 18.0678L16.3426 28.1703C16.7149 28.7609 17.4957 28.938 18.0863 28.5656C18.6771 28.1935 18.854 27.4125 18.4819 26.8219L11.1412 15.1736H28.4716V52.8597H24.3595C21.8985 52.8597 19.9033 54.8551 19.9033 57.3161H42.0968C42.0968 54.8551 40.1016 52.86 37.6407 52.86Z" fill="#E84362"/>
<path d="M19.2786 30.105H0.673913C0.301778 30.105 0 30.4066 0 30.7789C0 36.2798 4.47532 40.7551 9.97634 40.7551C15.4772 40.7551 19.9527 36.2798 19.9527 30.7789C19.9525 30.4068 19.6508 30.105 19.2786 30.105Z" fill="#E84362"/>
<path d="M61.3261 30.105H42.7214C42.3493 30.105 42.0475 30.4066 42.0475 30.7789C42.0475 36.2798 46.5228 40.7551 52.024 40.7551C57.5249 40.7551 62.0002 36.2798 62.0002 30.7789C62 30.4068 61.6983 30.105 61.3261 30.105Z" fill="#E84362"/>
</g>
<defs>
<clipPath id="clip0">
<rect width="62" height="62" fill="white"/>
</clipPath>
</defs>
</svg>
