<svg width="32" height="32" viewBox="0 0 32 32" fill="none" xmlns="http://www.w3.org/2000/svg">
<g clip-path="url(#clip0)">
<path d="M23.5693 1.82351C23.1522 1.40634 23.1522 0.729983 23.5693 0.312808C23.9865 -0.104269 24.6628 -0.104269 25.0799 0.312808L29.2157 4.44833C29.6328 4.86551 29.6328 5.54186 29.2157 5.95904C29.0071 6.16753 28.7337 6.27192 28.4604 6.27192C28.187 6.27192 27.9136 6.16763 27.7051 5.95904L23.5693 1.82351ZM29.7338 29.8637H2.26643C1.6765 29.8637 1.19824 30.3419 1.19824 30.9318C1.19824 31.5218 1.6765 32 2.26643 32H29.7337C30.3237 32 30.8019 31.5218 30.8019 30.9318C30.8019 30.3419 30.3238 29.8637 29.7338 29.8637ZM2.78469 26.744C2.51609 26.4754 2.41034 26.0845 2.50687 25.7173L3.98057 20.1076C4.02874 19.9245 4.12458 19.7576 4.2584 19.6237L20.6722 3.20963C21.0894 2.79255 21.7657 2.79255 22.1828 3.20963L26.3187 7.34535C26.5191 7.54568 26.6316 7.81729 26.6316 8.10065C26.6316 8.38392 26.5191 8.65562 26.3187 8.85596L9.90482 25.2699C9.77101 25.4037 9.60398 25.4995 9.42103 25.5476L3.81151 27.0217C3.72178 27.0453 3.6305 27.0568 3.54009 27.0568C3.26032 27.0568 2.98755 26.9469 2.78469 26.744ZM5.03798 24.4906L8.59853 23.5549L24.0528 8.10065L21.4276 5.47564L5.97342 20.93L5.03798 24.4906Z" fill="#E84362"/>
</g>
<defs>
<clipPath id="clip0">
<rect width="32" height="32" fill="white" transform="matrix(1 0 0 -1 0 32)"/>
</clipPath>
</defs>
</svg>
