<svg fill="#fff" width="71" height="71" xmlns="http://www.w3.org/2000/svg" viewBox="0 0 468.016 468.016"><path d="M403.328 3.384v-.04a8 8 0 1 0-13.016 9.305c47.595 66.618 47.595 156.118 0 222.736a8 8 0 0 0 1.818 11.167l.047.033a8 8 0 0 0 11.152-1.856c51.572-72.183 51.572-169.162-.001-241.345zM75.841 1.489l-.001-.001a8 8 0 0 0-11.152 1.856c-51.573 72.183-51.573 169.161 0 241.344a8 8 0 0 0 11.176 1.758 8 8 0 0 0 1.84-11.062c-47.595-66.618-47.595-156.118 0-222.736a8 8 0 0 0-1.863-11.159z"/><path d="M126.72 40.704a8 8 0 0 0-1.424-11.224 8 8 0 0 0-11.2 1.392c-42.741 54.741-42.741 131.547 0 186.288a8 8 0 0 0 12.624-9.832c-38.24-48.959-38.24-117.664 0-166.624zm216.002-11.225l-.001.001a8 8 0 0 0-1.392 11.2c38.241 48.959 38.241 117.665 0 166.624a8 8 0 0 0 12.624 9.832c42.741-54.741 42.741-131.547 0-186.288a8.001 8.001 0 0 0-11.231-1.369zm-50.474 39.809c29.013 30.718 29.013 78.738 0 109.456a8.001 8.001 0 0 0 .34 11.309l.004.003a7.999 7.999 0 0 0 11.308-.348l.004-.004c34.804-36.877 34.804-94.499 0-131.376a8 8 0 0 0-11.305-.437 8 8 0 0 0-.351 11.397zM169.936 192.224a8 8 0 0 0 5.832-13.48c-29.013-30.718-29.013-78.738 0-109.456a8 8 0 1 0-11.656-10.96c-34.804 36.877-34.804 94.499 0 131.376a7.999 7.999 0 0 0 5.824 2.52z"/><path d="M337.768 458.024l-77.896-303.752c16.852-14.284 18.933-39.525 4.649-56.377-14.284-16.852-39.525-18.933-56.377-4.649-16.852 14.284-18.933 39.525-4.649 56.377a39.867 39.867 0 0 0 4.649 4.649l-77.888 303.752a8 8 0 0 0 5.755 9.741l.013.003a8 8 0 0 0 9.728-5.76l2.672-10.4a8.026 8.026 0 0 0 1.304-.496L299.272 372.4l22.976 89.6a7.999 7.999 0 0 0 7.76 6.016 7.999 7.999 0 0 0 7.76-9.992zM260.64 221.696l-43.504-38.072 5.504-21.456a39.315 39.315 0 0 0 11.368 1.848 39.32 39.32 0 0 0 11.368-1.848l15.264 59.528zm-26.632-121.68c13.255 0 24 10.745 24 24s-10.745 24-24 24-24-10.745-24-24 10.745-24 24-24zm-21.32 100.968l48.184 42.176-71.2 47.44 23.016-89.616zm-58.96 229.928l28.72-112 97.6 45.536-126.32 66.464zm40.552-124.128l75.304-50.208 24.856 96.944-100.16-46.736z"/></svg>