<svg fill="#12629a" width="48" height="48" viewBox="-31 0 479 480" xmlns="http://www.w3.org/2000/svg"><path d="M376.5 184h-160c-22.09 0-40 17.91-40 40v64c0 22.09 17.91 40 40 40h32a8 8 0 0 0 0-16h-32c-13.254 0-24-10.746-24-24v-64c0-13.254 10.746-24 24-24h160c13.254 0 24 10.746 24 24v64c0 13.254-10.746 24-24 24a8 8 0 0 0-8 8v44.719l-50.32-50.399a8.007 8.007 0 0 0-5.68-2.32h-32a8 8 0 0 0 0 16h28.719l61.601 61.68a8.007 8.007 0 0 0 5.68 2.32 6.69 6.69 0 0 0 3.04-.64 7.996 7.996 0 0 0 4.96-7.36v-56.8c18.625-3.802 32.004-20.188 32-39.2v-64c0-22.09-17.91-40-40-40zm0 0"/><path d="M280.5 240a8 8 0 0 0 0-16h-32a8 8 0 0 0 0 16zm88-16h-56a8 8 0 0 0 0 16h56a8 8 0 0 0 0-16zm-152 48a8 8 0 0 0 8 8h48a8 8 0 0 0 0-16h-48a8 8 0 0 0-8 8zm96 0a8 8 0 1 1-16 0 8 8 0 0 1 16 0zm32 0a8 8 0 1 1-16 0 8 8 0 0 1 16 0zm32 0a8 8 0 1 1-16 0 8 8 0 0 1 16 0zm-208-96h-40a8 8 0 0 0 0 16h40a8 8 0 0 0 0-16zm-64 40a8 8 0 0 0 0 16h16a8 8 0 0 0 0-16zm56 8a8 8 0 1 1-16 0 8 8 0 0 1 16 0zm0 0"/><path d="M269.14 164a7.987 7.987 0 0 0 4.883 3.715 8.012 8.012 0 0 0 6.079-.836A8.001 8.001 0 0 0 282.98 156a39.999 39.999 0 0 0-34.48-20h-160c-22.09 0-40 17.91-40 40v64c-.004 19.012 13.375 35.398 32 39.2V336a7.996 7.996 0 0 0 4.96 7.36 6.69 6.69 0 0 0 3.04.64 8.007 8.007 0 0 0 5.68-2.32l64-64a8.032 8.032 0 0 0-11.36-11.36l-50.32 50.4V272a8 8 0 0 0-8-8c-13.254 0-24-10.746-24-24v-64c0-13.254 10.746-24 24-24h160a23.996 23.996 0 0 1 20.64 12zM120.5 432a8 8 0 0 0 0 16h80a8 8 0 0 0 0-16zm-64-392a8 8 0 1 1-16 0 8 8 0 0 1 16 0zm32 0a8 8 0 1 1-16 0 8 8 0 0 1 16 0zm184 8a8 8 0 0 0 0-16h-56a8 8 0 0 0 0 16zm-208 352a8 8 0 0 0 0 16h192a8 8 0 0 0 0-16zm-8-328a8 8 0 0 0 8 8h192a8 8 0 0 0 0-16h-192a8 8 0 0 0-8 8zm0 0"/><path d="M312.5 360a8 8 0 0 0-8 8v72c0 13.254-10.746 24-24 24h-240c-13.254 0-24-10.746-24-24V40c0-13.254 10.746-24 24-24h240c13.254 0 24 10.746 24 24v120a8 8 0 0 0 16 0V40c0-22.09-17.91-40-40-40h-240C18.41 0 .5 17.91.5 40v400c0 22.09 17.91 40 40 40h240c22.09 0 40-17.91 40-40v-72a8 8 0 0 0-8-8zm0 0"/></svg>