<svg fill="#fff" width="77" height="77" xmlns="http://www.w3.org/2000/svg" viewBox="0 0 512 512"><path d="M502 176.348c5.523 0 10-4.478 10-10v-65.822c0-5.522-4.477-10-10-10h-54c-8.896 0-16.447 5.842-19.037 13.889H288.249c-.106-.053-.205-.113-.314-.162-27.153-12.337-56.977-15.84-86.245-10.126l-80.778 15.763H83.968C83.627 99.158 74.813 90.526 64 90.526H10c-5.523 0-10 4.478-10 10v64.288c0 5.522 4.477 10 10 10s10-4.478 10-10v-54.288h44v189.588H20v-53.3c0-5.522-4.477-10-10-10s-10 4.478-10 10v63.3c0 5.522 4.477 10 10 10h54c11.028 0 20-8.972 20-20v-.11a37.207 37.207 0 0 1 12.721 6.38L101.39 310c.887 7.936 4.729 15.549 11.364 21.015a31.66 31.66 0 0 0 20.196 7.243c.716 0 1.431-.033 2.145-.081 1.015 8.088 5.007 15.365 11.325 20.569a31.655 31.655 0 0 0 20.197 7.243c.716 0 1.43-.032 2.144-.08 1.015 8.088 5.008 15.365 11.326 20.57 5.75 4.735 12.813 7.261 20.167 7.261.727 0 1.458-.034 2.19-.084.982 7.769 4.801 15.195 11.308 20.556 5.75 4.735 12.813 7.261 20.167 7.261 1.034 0 2.075-.051 3.118-.151 8.457-.817 16.089-4.879 21.491-11.437l8.132-9.872a31.642 31.642 0 0 0 5.38-9.465 32.906 32.906 0 0 0 15.544 3.871c.162 0 .324-.002.486-.004 8.845-.126 17.111-3.689 23.276-10.033a32.922 32.922 0 0 0 7.203-11.321l3.451 3.354c6.425 6.244 14.753 9.352 23.076 9.352 8.639 0 17.271-3.352 23.753-10.021a32.882 32.882 0 0 0 7.771-12.958 33.158 33.158 0 0 0 14.726 3.446c8.639 0 17.271-3.351 23.753-10.021 6.165-6.344 9.491-14.708 9.364-23.554-.126-8.845-3.689-17.111-10.024-23.267l-6.948-6.77L428 291.541v8.573c0 11.028 8.972 20 20 20h54c5.523 0 10-4.478 10-10v-66.3c0-5.522-4.477-10-10-10s-10 4.478-10 10v56.3h-44V110.526h44v55.822c0 5.522 4.477 10 10 10zm-351.776 127.75l-8.132 9.872c-4.14 5.027-11.596 5.749-16.622 1.607-5.026-4.14-5.747-11.597-1.607-16.622l8.133-9.872a11.727 11.727 0 0 1 7.978-4.246 11.718 11.718 0 0 1 8.643 2.639c5.026 4.14 5.746 11.597 1.607 16.622zm33.665 27.734l-8.132 9.872c-4.139 5.025-11.597 5.747-16.622 1.606a11.729 11.729 0 0 1-4.246-7.978 11.731 11.731 0 0 1 2.64-8.644l8.133-9.873a11.724 11.724 0 0 1 7.978-4.245 11.718 11.718 0 0 1 8.643 2.639 11.731 11.731 0 0 1 4.246 7.979 11.735 11.735 0 0 1-2.64 8.644zm33.667 27.729l-8.133 9.873a11.724 11.724 0 0 1-7.978 4.245 11.706 11.706 0 0 1-8.644-2.638 11.732 11.732 0 0 1-4.247-7.979 11.734 11.734 0 0 1 2.64-8.644l8.132-9.872a11.791 11.791 0 0 1 9.125-4.295c2.644 0 5.303.881 7.498 2.689 5.026 4.14 5.747 11.596 1.607 16.621zm33.664 27.734l-8.133 9.872a11.727 11.727 0 0 1-7.978 4.246 11.705 11.705 0 0 1-8.644-2.64c-5.026-4.14-5.747-11.597-1.607-16.622l8.133-9.872a11.726 11.726 0 0 1 7.979-4.245 11.72 11.72 0 0 1 8.644 2.639 11.729 11.729 0 0 1 4.246 7.978 11.731 11.731 0 0 1-2.64 8.644zm149.513-45.024c-5.041 5.188-13.361 5.306-18.548.266l-33.155-32.222c-.037-.036-.077-.065-.114-.101l-32.662-31.742c-3.96-3.85-10.292-3.758-14.141.201-3.849 3.961-3.759 10.292.202 14.141l51.902 50.441c5.187 5.041 5.306 13.362.265 18.549-5.04 5.188-13.361 5.306-18.548.266l-51.903-50.441c-.104-.102-.217-.189-.325-.285l-24.937-24.234c-3.96-3.849-10.291-3.758-14.141.201-3.849 3.961-3.759 10.292.202 14.141l51.902 50.441c5.187 5.041 5.306 13.362.265 18.549a13.03 13.03 0 0 1-9.219 3.974c-3.484.063-6.815-1.268-9.329-3.71l-14.536-14.126a10.04 10.04 0 0 0-1.03-.861c-.186-.16-.366-.326-.557-.483-6.512-5.363-14.537-7.689-22.355-7.162-.979-7.774-4.799-15.206-11.31-20.57-6.507-5.36-14.527-7.687-22.34-7.163-1.016-8.087-5.007-15.365-11.325-20.569-6.318-5.204-14.229-7.73-22.357-7.177-.982-7.769-4.801-15.195-11.308-20.556-6.558-5.401-14.823-7.922-23.284-7.109-8.457.817-16.089 4.879-21.491 11.437l-8.133 9.872a31.917 31.917 0 0 0-1.9 2.558 57.481 57.481 0 0 0-22.526-9.281V129.89h37.878c.643 0 1.284-.062 1.916-.186l81.727-15.948c13.866-2.705 27.876-2.992 41.569-.941-10.346 4.653-19.883 11.166-28.179 19.375l-75.713 74.913c-13.73 13.584-13.979 35.933-.555 49.818a35.408 35.408 0 0 0 25.493 10.808 35.366 35.366 0 0 0 17.417-4.584l79.341-44.826h27.394l108.182 105.406a13.026 13.026 0 0 1 3.974 9.219 13.018 13.018 0 0 1-3.708 9.327zM428 268.814l-35.543 19.181-71.512-69.677h7.022c5.523 0 10-4.478 10-10s-4.477-10-10-10h-65.704a9.989 9.989 0 0 0-4.919 1.294l-81.631 46.119a15.437 15.437 0 0 1-18.692-2.711c-5.848-6.049-5.739-15.784.242-21.701l75.713-74.913c14.333-14.182 33.332-21.991 53.495-21.991H428v144.399z"/><path d="M509.07 198.254c-1.86-1.87-4.44-2.93-7.07-2.93s-5.21 1.06-7.07 2.93a10.06 10.06 0 0 0-2.93 7.07c0 2.63 1.07 5.21 2.93 7.07 1.86 1.859 4.44 2.93 7.07 2.93s5.21-1.07 7.07-2.93c1.86-1.87 2.93-4.44 2.93-7.07 0-2.64-1.07-5.21-2.93-7.07zm-492 0c-1.86-1.87-4.44-2.93-7.07-2.93s-5.21 1.06-7.07 2.93a10.06 10.06 0 0 0-2.93 7.07c0 2.63 1.07 5.2 2.93 7.07 1.86 1.86 4.44 2.93 7.07 2.93s5.21-1.07 7.07-2.93c1.86-1.87 2.93-4.44 2.93-7.07 0-2.64-1.07-5.21-2.93-7.07z"/></svg>