<svg width="70" height="70" viewBox="0 0 102 102" fill="none" xmlns="http://www.w3.org/2000/svg"><path d="M87.059 72.117H75.106c-8.248 0-14.942 6.694-14.942 14.942v11.953A2.96 2.96 0 0 0 63.152 102h35.86A2.96 2.96 0 0 0 102 99.012V87.059c0-8.248-6.694-14.942-14.941-14.942z" fill="#368DCF"/><path d="M102 87.059v11.953A2.96 2.96 0 0 1 99.012 102h-17.93V72.117h5.977c8.247 0 14.941 6.694 14.941 14.942z" fill="#2B75AD"/><path d="M26.895 72.117H14.94C6.694 72.117 0 78.811 0 87.06v11.953A2.96 2.96 0 0 0 2.988 102h35.86a2.96 2.96 0 0 0 2.988-2.988V87.059c0-8.248-6.694-14.942-14.941-14.942z" fill="#CF0404"/><path d="M41.836 87.059v11.953A2.96 2.96 0 0 1 38.848 102h-17.93V72.117h5.977c8.247 0 14.94 6.694 14.94 14.942z" fill="#B80000"/><path d="M20.918 54.188c-6.574 0-11.953 5.379-11.953 11.953s5.379 11.953 11.953 11.953 11.953-5.38 11.953-11.953c0-6.574-5.379-11.954-11.953-11.954z" fill="#FF3F2E"/><path d="M81.082 54.188c-6.574 0-11.953 5.379-11.953 11.953s5.379 11.953 11.953 11.953 11.953-5.38 11.953-11.953c0-6.574-5.379-11.954-11.953-11.954z" fill="#4AB8F7"/><path d="M93.035 66.14c0 6.575-5.379 11.954-11.953 11.954V54.188c6.574 0 11.953 5.379 11.953 11.953z" fill="#1EA1E3"/><path d="M32.871 66.14c0 6.575-5.379 11.954-11.953 11.954V54.188c6.574 0 11.953 5.379 11.953 11.953z" fill="#CF0404"/><path d="M80.883 7.232c-1.853-.837-3.885-1.255-5.976-1.255H55.363c-1.494 0-2.749 1.135-2.928 2.63l-4.423 35.859c-.18 1.793 1.195 3.346 2.988 3.346h10.698L72.815 58.87c1.853 1.912 5.08.598 5.08-2.092v-9.263c1.016-.18 2.032-.538 2.988-.957a14.888 14.888 0 0 0 8.965-13.686V20.918a14.889 14.889 0 0 0-8.965-13.686z" fill="#355382"/><path d="M51 0H27.094c-2.092 0-4.124.418-5.977 1.255a14.888 14.888 0 0 0-8.965 13.686v17.93a14.888 14.888 0 0 0 8.965 13.686c.956.419 1.973.777 2.988.957v9.263c0 2.69 3.228 4.004 5.08 2.092l9.862-9.801 1.255-1.255H51c8.248 0 14.941-6.694 14.941-14.942v-17.93C65.941 6.694 59.248 0 51 0z" fill="#FFD400"/><path d="M50.103 17.033L39.047 28.09c-1.596 1.595-3.306 2.764-5.08.896L27.99 23.01a2.888 2.888 0 0 1 0-4.184 2.888 2.888 0 0 1 4.184 0l3.884 3.825 2.989-2.988 6.873-6.813a2.888 2.888 0 0 1 4.183 0 2.888 2.888 0 0 1 0 4.183z" fill="#3F6199"/></svg>