<svg width="70" height="70" viewBox="0 0 102 102" fill="none" xmlns="http://www.w3.org/2000/svg"><path d="M15.543 56.518a2.99 2.99 0 0 1-1.727-5.43l17.13-11.037a2.998 2.998 0 0 1 4.167.718 2.992 2.992 0 0 1-.718 4.168l-17.13 11.036a2.99 2.99 0 0 1-1.722.545zm27.855-15.715a2.987 2.987 0 0 1-.613-5.912l15.199-3.513c1.607-.33 3.2.694 3.54 2.308a2.989 2.989 0 0 1-2.31 3.54l-15.197 3.513a2.997 2.997 0 0 1-.62.064zm25.517-8.716a2.972 2.972 0 0 1-2.232-1.004 2.985 2.985 0 0 1 .248-4.217l17.96-15.962a2.973 2.973 0 0 1 4.215.248 2.984 2.984 0 0 1-.247 4.216l-17.96 15.963a2.97 2.97 0 0 1-1.984.756z" fill="#C4B3AF"/><path d="M17.93 71.918H2.988A2.959 2.959 0 0 0 0 74.906v24.106A2.96 2.96 0 0 0 2.988 102H17.93a2.96 2.96 0 0 0 2.988-2.988V74.906a2.959 2.959 0 0 0-2.988-2.988z" fill="#656366"/><path d="M45.023 53.988H30.082a2.959 2.959 0 0 0-2.988 2.989v42.035A2.959 2.959 0 0 0 30.082 102h14.941a2.96 2.96 0 0 0 2.989-2.988V56.977a2.959 2.959 0 0 0-2.989-2.989z" fill="#FFD400"/><path d="M71.918 48.012H56.977A2.959 2.959 0 0 0 53.988 51v48.012A2.96 2.96 0 0 0 56.977 102h14.941a2.959 2.959 0 0 0 2.988-2.988V51a2.959 2.959 0 0 0-2.988-2.988z" fill="#90E36A"/><path d="M99.012 24.105H84.07a2.959 2.959 0 0 0-2.988 2.989v71.918A2.96 2.96 0 0 0 84.07 102h14.942A2.959 2.959 0 0 0 102 99.012V27.094a2.958 2.958 0 0 0-2.988-2.989z" fill="#FF8597"/><path d="M10.658 48.012a8.952 8.952 0 0 0-8.965 8.965 8.953 8.953 0 0 0 8.965 8.964 8.953 8.953 0 0 0 8.965-8.964 8.952 8.952 0 0 0-8.965-8.965zm26.895-17.93a8.952 8.952 0 0 0-8.965 8.965 8.953 8.953 0 0 0 8.965 8.965 8.953 8.953 0 0 0 8.965-8.965 8.952 8.952 0 0 0-8.965-8.965zm26.894-5.977a8.952 8.952 0 0 0-8.965 8.965 8.953 8.953 0 0 0 8.965 8.965 8.953 8.953 0 0 0 8.965-8.965 8.952 8.952 0 0 0-8.965-8.965zM91.342 0a8.952 8.952 0 0 0-8.965 8.965 8.953 8.953 0 0 0 8.965 8.965 8.953 8.953 0 0 0 8.965-8.965A8.953 8.953 0 0 0 91.342 0z" fill="#DFD7D5"/><path d="M91.342 17.93V0a8.953 8.953 0 0 1 8.965 8.965 8.953 8.953 0 0 1-8.965 8.965z" fill="#D2C5C2"/><path d="M91.342 11.953a2.992 2.992 0 0 1-2.989-2.988 2.992 2.992 0 0 1 2.989-2.988 2.992 2.992 0 0 1 2.988 2.988 2.992 2.992 0 0 1-2.988 2.988z" fill="#4A696F"/><path d="M94.33 8.965a2.992 2.992 0 0 0-2.988-2.988v5.976a2.992 2.992 0 0 0 2.988-2.988z" fill="#3E5959"/><path d="M102 27.094v71.918A2.959 2.959 0 0 1 99.012 102H91.54V24.106h7.47a2.958 2.958 0 0 1 2.99 2.988z" fill="#F4665B"/><path d="M64.447 42.035v-17.93a8.952 8.952 0 0 1 8.965 8.965 8.953 8.953 0 0 1-8.965 8.965z" fill="#D2C5C2"/><path d="M64.447 36.059a2.992 2.992 0 0 1-2.988-2.989 2.992 2.992 0 0 1 2.988-2.988 2.992 2.992 0 0 1 2.989 2.988 2.992 2.992 0 0 1-2.989 2.989z" fill="#4A696F"/><path d="M67.436 33.07a2.992 2.992 0 0 0-2.989-2.988v5.977a2.992 2.992 0 0 0 2.989-2.989z" fill="#3E5959"/><path d="M74.906 51v48.012A2.959 2.959 0 0 1 71.918 102h-7.47V48.012h7.47A2.959 2.959 0 0 1 74.906 51z" fill="#3CCB79"/><path d="M37.553 48.012v-17.93a8.952 8.952 0 0 1 8.965 8.965 8.953 8.953 0 0 1-8.965 8.965z" fill="#D2C5C2"/><path d="M37.553 42.035a2.992 2.992 0 0 1-2.988-2.988 2.992 2.992 0 0 1 2.988-2.988 2.992 2.992 0 0 1 2.988 2.988 2.992 2.992 0 0 1-2.988 2.988z" fill="#4A696F"/><path d="M40.541 39.047a2.992 2.992 0 0 0-2.988-2.988v5.976a2.992 2.992 0 0 0 2.988-2.988z" fill="#3E5959"/><path d="M48.012 56.977v42.035A2.96 2.96 0 0 1 45.023 102h-7.47V53.988h7.47a2.959 2.959 0 0 1 2.989 2.989z" fill="#FF9F00"/><path d="M10.658 65.941v-17.93a8.952 8.952 0 0 1 8.965 8.966 8.953 8.953 0 0 1-8.965 8.964z" fill="#D2C5C2"/><path d="M10.658 59.965a2.992 2.992 0 0 1-2.988-2.988 2.992 2.992 0 0 1 2.988-2.989 2.992 2.992 0 0 1 2.989 2.989 2.992 2.992 0 0 1-2.989 2.988z" fill="#4A696F"/><path d="M13.646 56.977a2.992 2.992 0 0 0-2.988-2.989v5.977a2.992 2.992 0 0 0 2.989-2.988z" fill="#3E5959"/><path d="M20.918 74.906v24.106A2.96 2.96 0 0 1 17.93 102h-7.471V71.918h7.47a2.959 2.959 0 0 1 2.989 2.988z" fill="#000"/></svg>