<svg width="70" height="70" fill="none" viewBox="0 0 102 102" xmlns="http://www.w3.org/2000/svg"><path d="M96.724.88H5.276C2.374.88 0 3.253 0 6.154c0 2.902 2.374 5.276 5.276 5.276V6.155h91.448v5.276c2.902 0 5.276-2.374 5.276-5.276C102 3.254 99.626.88 96.724.88z" fill="#3D465B"/><path d="M8.793 90.57l10.551 10.551 10.552-10.552 10.552 10.552 10.551-10.552 10.552 10.552 10.552-10.552 10.552 10.552 10.551-10.552 3.518 3.517V6.156H5.275v87.93l3.518-3.517z" fill="#F0EDE0"/><path d="M75.62 72.983H49.241a1.758 1.758 0 1 1 0-3.517h26.38a1.758 1.758 0 1 1 0 3.517zm8.793 0a1.85 1.85 0 0 1-1.249-.51 1.85 1.85 0 0 1-.51-1.249c0-.476.194-.916.51-1.248.669-.65 1.83-.65 2.498 0 .316.332.51.772.51 1.248 0 .458-.194.915-.51 1.25a1.85 1.85 0 0 1-1.25.51zm0-24.621H58.034a1.758 1.758 0 1 1 0-3.517h26.38a1.758 1.758 0 1 1 0 3.517zm0 12.31H66.827a1.758 1.758 0 1 1 0-3.517h17.586a1.758 1.758 0 1 1 0 3.517zm-31.655 0h-3.517a1.758 1.758 0 1 1 0-3.517h3.517a1.758 1.758 0 1 1 0 3.517zm22.862-24.62H49.241a1.758 1.758 0 1 1 0-3.517h26.38a1.758 1.758 0 1 1 0 3.517zm8.793 0c-.457 0-.915-.194-1.249-.51a1.849 1.849 0 0 1-.51-1.249c0-.476.194-.916.51-1.248.651-.651 1.847-.651 2.498 0 .316.332.51.791.51 1.248 0 .458-.194.915-.51 1.249-.335.316-.774.51-1.25.51zM51 48.362a1.85 1.85 0 0 1-1.248-.51 1.816 1.816 0 0 1-.51-1.249c0-.476.194-.916.51-1.248.668-.651 1.847-.651 2.497 0 .317.332.51.772.51 1.248 0 .475-.193.915-.51 1.249a1.85 1.85 0 0 1-1.248.51zm8.794 12.31c-.457 0-.915-.193-1.249-.51a1.849 1.849 0 0 1-.51-1.248c0-.457.194-.916.51-1.249.668-.65 1.847-.65 2.497 0a1.781 1.781 0 0 1 0 2.498 1.85 1.85 0 0 1-1.248.51z" fill="#D4C3A5"/><path fill-rule="evenodd" clip-rule="evenodd" d="M31.655 44.845a1.758 1.758 0 1 0 3.517 0c0-4.245-3.026-7.798-7.034-8.615v-1.937a1.758 1.758 0 1 0-3.518 0v1.942a8.768 8.768 0 0 0-4.955 2.933 6.046 6.046 0 0 0-1.397 4.578 6.417 6.417 0 0 0 2.433 4.38l3.92 3.05v9.563c-2.042-.728-3.518-2.662-3.518-4.952a1.758 1.758 0 1 0-3.517 0c0 4.245 3.027 7.798 7.034 8.616v1.545a1.758 1.758 0 1 0 3.518 0v-1.55a8.778 8.778 0 0 0 4.957-2.934 6.057 6.057 0 0 0 1.395-4.581 6.412 6.412 0 0 0-2.432-4.376l-3.92-3.05v-9.563c2.041.727 3.517 2.661 3.517 4.951zm-1.757 10.437a2.887 2.887 0 0 1 1.094 1.967 2.562 2.562 0 0 1-.582 1.943c-.612.723-1.404 1.23-2.272 1.539v-6.82l1.76 1.371zm-8.132-11.9a2.893 2.893 0 0 0 1.094 1.97l1.76 1.368V39.9c-.868.31-1.66.816-2.272 1.54a2.569 2.569 0 0 0-.582 1.94z" fill="#24AE5F"/><path d="M10.552 20.224a1.85 1.85 0 0 1-1.249-.51 1.85 1.85 0 0 1-.51-1.248c0-.458.193-.917.51-1.249.668-.65 1.846-.65 2.497 0 .317.332.51.791.51 1.249 0 .457-.193.914-.51 1.248a1.85 1.85 0 0 1-1.248.51z" fill="#A5A5A4"/><path fill-rule="evenodd" clip-rule="evenodd" d="M17.288 16.707c-.967 0-1.759.791-1.759 1.759 0 .967.792 1.758 1.759 1.758.985 0 1.759-.791 1.759-1.758 0-.968-.774-1.759-1.76-1.759zm4.994 1.759c0-.968.774-1.759 1.759-1.759.967 0 1.759.791 1.759 1.759 0 .967-.792 1.758-1.759 1.758a1.753 1.753 0 0 1-1.759-1.758zm8.494-1.759c-.967 0-1.758.791-1.758 1.759 0 .967.791 1.758 1.758 1.758.968 0 1.76-.791 1.76-1.758 0-.968-.792-1.759-1.76-1.759zm4.977 1.759c0-.968.792-1.759 1.76-1.759.984 0 1.758.791 1.758 1.759 0 .967-.774 1.758-1.759 1.758a1.764 1.764 0 0 1-1.759-1.758zm8.512-1.759c-.985 0-1.758.791-1.758 1.759 0 .967.773 1.758 1.758 1.758.967 0 1.759-.791 1.759-1.758 0-.968-.792-1.759-1.759-1.759zm4.977 1.759c0-.968.791-1.759 1.759-1.759.967 0 1.758.791 1.758 1.759 0 .967-.791 1.758-1.758 1.758a1.764 1.764 0 0 1-1.759-1.758zm8.494-1.759c-.967 0-1.758.791-1.758 1.759 0 .967.791 1.758 1.758 1.758.985 0 1.759-.791 1.759-1.758 0-.968-.774-1.759-1.759-1.759zm4.995 1.759c0-.968.773-1.759 1.758-1.759.968 0 1.759.791 1.759 1.759 0 .967-.791 1.758-1.759 1.758a1.753 1.753 0 0 1-1.758-1.758zm8.494-1.759c-.967 0-1.759.791-1.759 1.759 0 .967.792 1.758 1.759 1.758.967 0 1.758-.791 1.758-1.758 0-.968-.79-1.759-1.758-1.759zm4.977 1.759c0-.968.791-1.759 1.758-1.759.985 0 1.759.791 1.759 1.759 0 .967-.774 1.758-1.759 1.758a1.764 1.764 0 0 1-1.758-1.758zm6.753 0c0-.968.774-1.759 1.758-1.759.968 0 1.76.791 1.76 1.759 0 .967-.792 1.758-1.76 1.758a1.753 1.753 0 0 1-1.758-1.758z" fill="#A5A5A4"/><path d="M91.448 20.224a1.774 1.774 0 0 1-1.759-1.759c0-.457.194-.916.51-1.248.634-.65 1.83-.65 2.498 0 .316.332.51.791.51 1.249 0 .457-.194.914-.51 1.248a1.85 1.85 0 0 1-1.249.51z" fill="#A5A5A4"/></svg>