<svg fill="#fff" width="77" height="77" xmlns="http://www.w3.org/2000/svg" viewBox="0 0 512.001 512.001"><path d="M414.055 182.537h-90.649V36.473C323.405 16.361 307.044 0 286.933 0H86.775C66.664 0 50.303 16.361 50.303 36.473v439.055c0 20.111 16.361 36.473 36.473 36.473h200.157c20.111 0 36.473-16.361 36.473-36.473V366.045h90.649c15.597 0 28.286-12.689 28.286-28.286V210.823c0-15.597-12.689-28.286-28.286-28.286zm-90.65 20.001h90.65v-.001c.319 0 .632.022.941.057.099.011.196.03.294.045.21.031.417.068.622.115a8.26 8.26 0 0 1 1.774.633c.08.039.163.075.242.117.263.14.52.291.765.458.024.016.045.035.068.051.22.153.432.315.636.488.076.064.147.134.221.201a8.262 8.262 0 0 1 .651.66c.125.142.245.289.36.439.042.054.082.109.123.164l-97.347 56.153-1.093.63-16.631 9.593a11.975 11.975 0 0 1-11.928 0l-16.63-9.593-46.711-26.945v-33.265h92.993zm-66.295 71.753l-26.698 15.4v-30.8l26.698 15.4zM70.303 36.473C70.303 27.39 77.691 20 86.775 20h200.157c9.083 0 16.473 7.39 16.473 16.473v30.462H70.303V36.473zm233.102 439.054c0 9.083-7.39 16.473-16.473 16.473H86.775c-9.083 0-16.473-7.39-16.473-16.473v-30.462h233.103v30.462zm0-50.46H70.303V86.935h233.102v95.603h-72.993v-16.87c0-5.522-4.478-10-10-10s-10 4.478-10 10v218.035c0 5.522 4.478 10 10 10s10-4.478 10-10v-17.657h72.993v59.021zm117.228-82.285a10.443 10.443 0 0 1-.589.687c-.137.143-.28.28-.426.413-.073.066-.144.135-.219.199a8.119 8.119 0 0 1-.636.488c-.023.016-.045.035-.068.051a8.314 8.314 0 0 1-.765.458c-.079.042-.162.077-.242.117-.189.093-.38.181-.576.259-.101.04-.204.076-.307.113a8.992 8.992 0 0 1-.89.26 8.042 8.042 0 0 1-.623.115c-.098.015-.194.033-.293.045a8.356 8.356 0 0 1-.941.057H230.416v-33.266l46.711-26.944 6.638 3.829a31.922 31.922 0 0 0 15.956 4.258 32.26 32.26 0 0 0 3.688-.223 31.84 31.84 0 0 0 12.27-4.034l6.637-3.829 1.093.631 97.347 56.152c-.04.055-.081.11-.123.164zm1.708-22.336l-80.015-46.155 80.015-46.155v92.31z"/><path d="M229.898 33.467h-86.089c-5.522 0-10 4.478-10 10s4.478 10 10 10h86.089c5.522 0 10-4.478 10-10s-4.477-10-10-10zm-55.527 445.066h24.966c5.522 0 10-4.478 10-10s-4.478-10-10-10h-24.966c-5.522 0-10 4.478-10 10s4.478 10 10 10zm277.328-334.866H347.988c-5.522 0-10 4.478-10 10s4.478 10 10 10h103.711c5.523 0 10-4.478 10-10s-4.478-10-10-10zM391.988 384h-22c-5.522 0-10 4.478-10 10s4.478 10 10 10h22c5.522 0 10-4.478 10-10s-4.478-10-10-10zM214.86 133.979c.54.36 1.12.67 1.73.92.6.25 1.229.44 1.87.57.64.13 1.3.2 1.95.2.649 0 1.31-.07 1.949-.2.641-.13 1.271-.32 1.87-.57a9.87 9.87 0 0 0 1.73-.92 9.51 9.51 0 0 0 1.52-1.239c.46-.46.88-.971 1.24-1.521.36-.54.67-1.12.92-1.729.25-.601.45-1.23.57-1.87.13-.641.2-1.301.2-1.95 0-.65-.07-1.311-.2-1.96-.12-.641-.32-1.271-.57-1.87s-.56-1.18-.92-1.72a9.533 9.533 0 0 0-1.24-1.521c-.46-.46-.97-.88-1.52-1.25a10.152 10.152 0 0 0-3.6-1.49 9.842 9.842 0 0 0-3.899 0 10.128 10.128 0 0 0-3.6 1.49c-.55.37-1.06.79-1.52 1.25s-.88.97-1.24 1.521c-.359.54-.67 1.12-.92 1.72-.25.6-.45 1.229-.57 1.87a10.02 10.02 0 0 0-.199 1.96c0 2.63 1.069 5.21 2.93 7.07.46.46.97.88 1.519 1.239z"/></svg>