<svg fill="#fff" width="74" height="74" xmlns="http://www.w3.org/2000/svg" viewBox="0 0 294.843 294.843"><path d="M199.628 175.487a4.818 4.818 0 0 1 1.741-5.358l37.422-27.455c5.958-4.371 8.333-11.736 6.049-18.763-2.283-7.028-8.533-11.591-15.922-11.625l-46.413-.215a4.818 4.818 0 0 1-4.558-3.311L163.4 64.684c-2.316-7.017-8.586-11.55-15.975-11.551-7.389 0-13.66 4.534-15.976 11.55l-6.557 19.859a5.999 5.999 0 0 0 3.816 7.578 5.999 5.999 0 0 0 7.579-3.816l6.557-19.859c1.014-3.073 3.762-3.312 4.581-3.312.818 0 3.566.239 4.58 3.312l14.547 44.077a16.807 16.807 0 0 0 15.897 11.55l46.413.215c3.236.015 4.313 2.555 4.565 3.333.253.778.875 3.465-1.734 5.379l-37.423 27.455a16.808 16.808 0 0 0-6.072 18.689l14.143 44.222c.986 3.083-1.097 4.892-1.759 5.372-.662.481-3.025 1.904-5.652.013l-37.677-27.114a16.81 16.81 0 0 0-19.654 0l-37.684 27.119c-2.627 1.89-4.991.468-5.652-.012-.662-.481-2.745-2.289-1.76-5.371l14.139-44.229a16.808 16.808 0 0 0-6.072-18.688L63.149 133c-2.609-1.914-1.987-4.602-1.734-5.379.253-.778 1.33-3.318 4.565-3.333l46.416-.215a6.001 6.001 0 0 0-.028-12h-.028l-46.416.215c-7.389.034-13.639 4.597-15.922 11.625-2.283 7.028.091 14.393 6.048 18.764l37.421 27.455a4.82 4.82 0 0 1 1.741 5.358l-14.138 44.229c-2.25 7.038.159 14.392 6.137 18.734 3 2.179 6.442 3.269 9.886 3.269 3.419 0 6.84-1.075 9.829-3.225l37.683-27.119a4.818 4.818 0 0 1 5.635 0l37.677 27.114c5.998 4.316 13.736 4.3 19.715-.044 5.979-4.343 8.387-11.697 6.136-18.736l-14.144-44.225z"/><path d="M147.421 0C66.133 0 0 66.133 0 147.421s66.133 147.421 147.421 147.421a6 6 0 0 0 0-12C72.75 282.843 12 222.093 12 147.421S72.75 12 147.421 12s135.421 60.75 135.421 135.421c0 46.48-23.42 89.182-62.65 114.228a6 6 0 0 0 6.457 10.115c42.7-27.262 68.193-73.745 68.193-124.342C294.843 66.133 228.71 0 147.421 0z"/></svg>