<?xml version="1.0" standalone="no"?>
<!DOCTYPE svg PUBLIC "-//W3C//DTD SVG 20010904//EN"
 "http://www.w3.org/TR/2001/REC-SVG-20010904/DTD/svg10.dtd">
<svg version="1.0" xmlns="http://www.w3.org/2000/svg"
 width="266.000000pt" height="266.000000pt" viewBox="0 0 266.000000 266.000000"
 preserveAspectRatio="xMidYMid meet">
<metadata>
Created by potrace 1.11, written by Peter Selinger 2001-2013
</metadata>
<g transform="translate(0.000000,266.000000) scale(0.100000,-0.100000)"
fill="#000000" stroke="none">
<path d="M430 2626 c-111 -37 -181 -102 -220 -205 -34 -87 10 -161 149 -254
108 -72 107 -71 176 -251 25 -66 52 -133 60 -150 21 -45 67 -215 69 -256 3
-48 25 -174 41 -238 10 -37 11 -61 4 -78 -5 -14 -9 -40 -9 -59 0 -24 -12 -49
-45 -92 -72 -92 -73 -94 -88 -175 -13 -72 -13 -79 4 -108 21 -33 74 -70 102
-70 27 0 30 -22 18 -108 -23 -162 -23 -159 -5 -187 16 -25 22 -27 72 -23 l54
5 -6 -56 c-3 -31 -11 -102 -18 -159 -11 -99 -11 -104 9 -123 l21 -21 16 119
c18 127 34 193 47 193 5 0 6 -15 3 -32 l-6 -33 29 30 c41 42 125 255 153 388
13 59 31 118 40 130 18 23 151 107 169 107 5 0 34 -14 63 -32 129 -77 196
-119 233 -146 114 -81 192 -142 211 -163 20 -24 90 -85 103 -91 3 -2 40 -46
81 -98 41 -52 80 -101 87 -108 20 -20 85 -13 140 16 118 62 183 140 183 219
-1 54 -8 71 -65 139 -105 126 -323 315 -489 424 -48 31 -136 103 -136 110 0 5
46 45 103 90 56 45 111 90 123 99 11 10 62 51 114 91 185 146 326 311 337 394
18 137 18 137 -32 196 -26 30 -59 60 -74 67 -14 7 -69 32 -121 56 -52 25 -111
48 -130 52 -19 4 -45 13 -57 21 -12 8 -35 14 -51 14 -15 0 -55 7 -87 16 -33 8
-76 17 -95 20 -153 19 -525 63 -565 68 -189 19 -319 39 -350 52 -17 7 -49 30
-71 51 -118 112 -183 163 -219 169 -5 0 -39 -9 -75 -20z m692 -597 c37 -1 72
-5 78 -9 7 -4 13 -31 15 -61 6 -107 16 -149 35 -149 12 0 22 11 28 33 5 17 18
60 27 95 10 34 24 62 31 62 7 0 17 -27 24 -72 19 -122 28 -128 55 -38 10 33
24 65 32 72 29 24 185 -7 363 -72 95 -35 156 -70 183 -107 19 -24 19 -24 -19
-59 -20 -20 -69 -61 -108 -92 -77 -61 -101 -82 -150 -125 -28 -25 -207 -153
-260 -185 -16 -10 -51 -11 -141 -6 -191 10 -205 11 -211 17 -3 2 -14 49 -24
103 -17 92 -45 209 -57 244 -3 8 -7 24 -9 35 -1 11 -16 80 -33 154 -35 160
-32 175 32 167 23 -3 72 -6 109 -7z"/>
</g>
</svg>
